<svg version="1.1" id="Layer_1" xmlns="http://www.w3.org/2000/svg" xmlns:xlink="http://www.w3.org/1999/xlink" x="0px" y="0px"
	 width="100%" viewBox="0 0 1920 1080" enable-background="new 0 0 1920 1080" xml:space="preserve">
<path fill="#000000" opacity="1.000000" stroke="none" 
	d="
M1258.000000,1081.000000 
	C838.666748,1081.000000 419.833496,1081.000000 1.000169,1081.000000 
	C1.000112,721.000122 1.000112,361.000275 1.000056,1.000314 
	C640.999756,1.000209 1280.999512,1.000209 1920.999512,1.000105 
	C1920.999634,360.999664 1920.999634,720.999329 1920.999756,1080.999512 
	C1700.166626,1081.000000 1479.333374,1081.000000 1258.000000,1081.000000 
M744.690369,504.314270 
	C737.867493,490.057678 730.270447,476.107513 724.467285,461.447296 
	C719.843811,449.767456 717.457275,437.207428 713.973450,425.068054 
	C712.953857,421.515533 710.993347,418.565277 706.676941,419.223663 
	C702.135620,419.916351 699.681458,423.472534 700.026489,427.618164 
	C701.093689,440.442169 702.927429,453.287689 702.790894,466.107086 
	C702.572388,486.617004 700.978943,507.111206 700.029907,527.614990 
	C699.608337,536.721558 699.471313,545.842529 698.965820,554.943665 
	C698.480713,563.678528 697.510620,572.388184 697.112122,581.125244 
	C696.949158,584.698547 697.291321,588.430725 698.206909,591.877319 
	C699.049133,595.047913 701.777283,596.525024 705.234375,595.967163 
	C708.574646,595.428040 710.598022,593.507141 710.950195,590.111206 
	C711.375671,586.007812 711.743958,581.894592 711.983215,577.776672 
	C712.683594,565.721252 713.400818,553.665588 713.938904,541.602356 
	C714.706909,524.384827 715.292603,507.159180 716.033936,489.940369 
	C716.142029,487.430878 716.680786,484.939880 717.124329,481.674072 
	C721.665161,490.341553 725.779541,498.194977 730.014526,506.767548 
	C734.064087,515.180237 738.113647,523.592896 742.090515,532.749817 
	C745.318298,541.013916 748.639526,549.243103 751.749268,557.551331 
	C755.370300,567.225647 758.411499,577.142578 762.555664,586.580383 
	C763.851013,589.530396 767.707397,592.638611 770.766785,593.081421 
	C772.814880,593.377991 777.094971,589.433655 777.649536,586.810486 
	C779.444214,578.321899 780.800598,569.571777 780.849548,560.914062 
	C781.011902,532.212463 781.877136,503.577850 783.674500,474.912231 
	C784.746948,457.808380 782.733398,440.502594 781.935059,423.295563 
	C781.726135,418.793579 778.124146,415.767212 774.080383,416.024109 
	C770.000183,416.283295 767.773193,418.873566 768.077271,424.061646 
	C768.394348,429.471924 769.873657,434.845184 769.882324,440.236176 
	C769.902893,453.010101 769.441223,465.787842 769.013062,478.558685 
	C768.418884,496.279755 767.612122,513.993774 767.032227,531.715271 
	C766.819885,538.204163 767.019836,544.705994 766.967834,551.201416 
	C766.960144,552.156067 766.596741,553.107910 766.153442,555.232910 
	C764.773376,551.790039 763.918884,549.516357 762.959106,547.287903 
	C758.027283,535.836853 753.068481,524.397339 747.991577,512.228271 
	C746.938110,509.817291 745.884583,507.406311 744.690369,504.314270 
M616.798584,592.148315 
	C618.627930,592.095825 620.460876,592.098999 622.286011,591.981384 
	C630.994385,591.420410 638.504883,582.411255 635.550415,575.358765 
	C632.119507,567.168823 628.179443,559.137451 623.801147,551.410889 
	C615.625793,536.983459 606.974304,522.825806 598.276306,508.142883 
	C599.365479,507.528473 600.721558,506.673340 602.152405,505.970520 
	C614.662231,499.825348 623.958130,490.566315 629.092896,477.526306 
	C636.595886,458.471741 630.864746,436.652374 610.763550,425.825348 
	C599.204712,419.599426 586.898071,419.179688 574.557861,420.241821 
	C561.825745,421.337708 557.616455,428.070892 557.895264,439.181488 
	C558.098450,447.275726 557.332764,455.394043 557.005310,463.501892 
	C556.337097,480.050171 555.600464,496.596100 555.030701,513.147766 
	C554.579773,526.246826 554.103088,539.352417 554.073181,552.456177 
	C554.048950,563.060425 554.596375,573.669434 555.038208,584.270142 
	C555.302979,590.622375 560.981689,596.007690 567.544495,595.939392 
	C573.822876,595.873962 580.104187,595.439087 586.369995,594.974731 
	C596.240051,594.243225 606.098145,593.350952 616.798584,592.148315 
M528.888367,456.816223 
	C522.481873,440.339630 510.784821,429.060028 494.628571,422.324799 
	C485.294525,418.433624 475.726715,414.936279 465.461670,418.208405 
	C463.347626,418.882263 460.627441,421.362976 460.395935,423.277985 
	C460.118164,425.575745 461.904694,428.367035 463.393646,430.535095 
	C464.178802,431.678436 466.232452,431.950623 467.998932,432.744476 
	C467.998932,434.005920 467.998871,435.325470 467.998901,436.645020 
	C467.999481,457.363617 468.127838,478.083282 467.959839,498.800507 
	C467.827850,515.076965 467.331055,531.350342 466.990936,547.625061 
	C466.973572,548.456482 466.916962,549.287781 466.858643,550.117676 
	C466.245331,558.845520 464.637726,567.640686 465.227631,576.286072 
	C466.298401,591.979858 473.268646,597.640686 486.945801,592.383789 
	C502.970703,586.224609 514.652222,575.130188 522.278870,559.513062 
	C531.359619,540.918152 534.973633,521.134888 535.900330,500.784515 
	C536.573425,486.004089 534.157837,471.533325 528.888367,456.816223 
M847.894836,448.374390 
	C841.371216,459.215424 834.847656,470.056488 828.324097,480.897522 
	C827.157715,478.847443 827.039246,477.243622 827.007507,475.638123 
	C826.662964,458.201385 826.348450,440.764038 825.986145,423.327698 
	C825.889282,418.666138 822.885498,415.125885 819.114685,415.042023 
	C815.387451,414.959137 811.917786,418.633606 812.044373,422.939789 
	C812.184998,427.723785 813.015503,432.503052 812.943359,437.275299 
	C812.378601,474.650055 811.630615,512.022034 811.029419,549.396362 
	C810.863342,559.720398 810.985657,570.049377 811.005493,580.376099 
	C811.017029,586.421387 813.950073,590.100769 818.587830,589.981995 
	C822.499756,589.881836 824.909241,586.188049 825.009888,580.353882 
	C825.319153,562.416260 825.664551,544.479370 826.019897,526.542664 
	C826.041077,525.472107 826.271851,524.405701 826.467590,522.836548 
	C827.484253,523.496460 828.155884,523.712341 828.477234,524.172729 
	C842.222839,543.871399 855.937439,563.591675 869.655823,583.309326 
	C871.059814,585.327332 872.061646,588.004944 873.982178,589.176392 
	C875.882751,590.335693 879.709900,591.095215 880.906494,590.028076 
	C882.890198,588.258911 884.311096,584.892639 884.333130,582.185974 
	C884.351746,579.888184 882.240784,577.448059 880.762146,575.282532 
	C865.549866,553.004272 850.317627,530.739258 834.968140,508.555450 
	C832.776672,505.388214 832.201172,502.717865 834.290771,499.211884 
	C844.403259,482.245117 854.378479,465.195923 864.307007,448.120514 
	C869.024597,440.006989 873.613953,431.815582 878.089783,423.566315 
	C879.938660,420.158508 879.756348,416.117920 876.252869,414.448486 
	C873.820618,413.289520 870.022339,413.958649 867.249878,414.960693 
	C865.706360,415.518585 865.009949,418.428436 863.938171,420.282043 
	C858.660522,429.410309 853.384949,438.539795 847.894836,448.374390 
M962.482788,421.000000 
	C955.320129,421.001923 948.154968,420.886902 940.995728,421.043884 
	C935.551147,421.163269 932.990356,425.776398 935.243347,430.642822 
	C936.796448,433.997467 939.321533,435.066315 942.799011,435.026581 
	C950.724426,434.935974 958.651611,434.998016 966.999634,434.998016 
	C966.999634,437.399323 966.989563,439.038239 967.001160,440.677032 
	C967.333008,487.598969 967.666992,534.520935 968.000671,581.442871 
	C968.005371,582.109131 968.011841,582.775391 968.012817,583.441650 
	C968.018616,587.257751 970.511353,589.134949 973.707214,589.883667 
	C977.283752,590.721558 979.901184,588.973206 980.931946,585.475037 
	C981.573242,583.298645 981.975159,580.956360 981.951599,578.693970 
	C981.695129,554.091919 981.275391,529.491577 981.023499,504.889435 
	C980.890503,491.898193 980.999207,478.904419 981.000183,465.911804 
	C981.000916,456.750336 981.081177,447.587891 980.963928,438.427948 
	C980.923340,435.252625 982.050598,433.984070 985.315186,433.938049 
	C990.096375,433.870697 994.866516,433.230988 999.649475,433.027496 
	C1006.841797,432.721466 1010.080688,430.535736 1009.989746,425.791534 
	C1009.888123,420.494598 1006.945007,418.654022 999.142334,419.005768 
	C998.809631,419.020752 998.475708,419.010010 998.143311,419.028839 
	C986.586975,419.684601 975.030762,420.342438 962.482788,421.000000 
M656.998657,537.498291 
	C657.340454,546.778564 657.400024,556.080750 658.118713,565.331787 
	C658.639221,572.032837 659.847107,578.701477 661.106750,585.316406 
	C661.894775,589.454590 665.580200,591.738403 669.074768,590.882935 
	C673.159119,589.883240 674.970581,586.170471 674.456909,581.808716 
	C673.106934,570.345459 671.169983,558.836365 671.194702,547.349304 
	C671.251892,520.788086 672.565369,494.232056 672.902527,467.667999 
	C673.087891,453.062012 672.338745,438.443787 671.986755,423.831635 
	C671.880859,419.435638 669.557190,417.142639 665.176147,417.018311 
	C660.619690,416.888977 658.017578,419.214600 658.068054,423.978180 
	C658.127625,429.595367 658.975525,435.210052 658.929077,440.821228 
	C658.849487,450.437164 658.309631,460.048584 658.019958,469.663635 
	C657.650024,481.942719 657.231140,494.221832 657.031616,506.504150 
	C656.869263,516.500000 656.998596,526.500549 656.998657,537.498291 
M926.000061,459.482727 
	C925.665894,447.874359 925.327209,436.266113 924.999695,424.657562 
	C924.851501,419.404938 922.674500,417.012634 918.005432,417.010223 
	C913.331238,417.007751 910.953552,419.400543 911.053589,424.645966 
	C911.160645,430.262299 912.064819,435.880707 911.928284,441.481323 
	C911.447327,461.205780 910.261475,480.919922 910.114502,500.643768 
	C909.957275,521.743713 910.456482,542.857117 911.129700,563.949951 
	C911.353638,570.967224 912.840820,577.967163 914.060242,584.920715 
	C914.756104,588.888611 918.611328,591.569214 921.833435,590.916748 
	C926.008301,590.071350 928.357056,585.846252 927.807983,581.472290 
	C926.373047,570.042236 924.191711,558.571716 924.207581,547.119995 
	C924.247681,518.237366 925.333374,489.356201 926.000061,459.482727 
z"/>
<path fill="#003DA5" opacity="1.000000" stroke="none" 
	d="
M616.379944,592.337524 
	C606.098145,593.350952 596.240051,594.243225 586.369995,594.974731 
	C580.104187,595.439087 573.822876,595.873962 567.544495,595.939392 
	C560.981689,596.007690 555.302979,590.622375 555.038208,584.270142 
	C554.596375,573.669434 554.048950,563.060425 554.073181,552.456177 
	C554.103088,539.352417 554.579773,526.246826 555.030701,513.147766 
	C555.600464,496.596100 556.337097,480.050171 557.005310,463.501892 
	C557.332764,455.394043 558.098450,447.275726 557.895264,439.181488 
	C557.616455,428.070892 561.825745,421.337708 574.557861,420.241821 
	C586.898071,419.179688 599.204712,419.599426 610.763550,425.825348 
	C630.864746,436.652374 636.595886,458.471741 629.092896,477.526306 
	C623.958130,490.566315 614.662231,499.825348 602.152405,505.970520 
	C600.721558,506.673340 599.365479,507.528473 598.276306,508.142883 
	C606.974304,522.825806 615.625793,536.983459 623.801147,551.410889 
	C628.179443,559.137451 632.119507,567.168823 635.550415,575.358765 
	C638.504883,582.411255 630.994385,591.420410 622.286011,591.981384 
	C620.460876,592.098999 618.627930,592.095825 616.379944,592.337524 
M608.481812,485.952209 
	C610.342224,483.441254 612.313843,481.004425 614.044434,478.406982 
	C623.258057,464.578400 619.884521,446.548401 606.689575,438.324280 
	C597.114746,432.356476 586.537659,432.482727 575.918518,433.241547 
	C572.810181,433.463654 570.810974,435.037140 570.861389,439.111816 
	C570.976013,448.384430 570.278320,457.664612 570.020874,466.944794 
	C569.316772,492.330597 568.669739,517.717957 567.999695,543.104736 
	C567.955811,544.768860 567.870972,546.432861 567.869263,548.096985 
	C567.857727,559.593994 567.863220,571.091064 567.863220,583.257935 
	C586.453308,581.722351 604.111511,580.263733 622.339539,578.758118 
	C621.805542,576.857910 621.668030,575.532043 621.089661,574.439514 
	C615.072266,563.073853 609.347595,551.530945 602.811707,540.468445 
	C596.458496,529.715210 589.230347,519.480225 582.433472,508.987183 
	C579.515137,504.481903 580.825378,499.145538 585.414307,498.141846 
	C594.039001,496.255402 601.323425,492.030334 608.481812,485.952209 
z"/>
<path fill="#003DA5" opacity="1.000000" stroke="none" 
	d="
M528.948364,457.203003 
	C534.157837,471.533325 536.573425,486.004089 535.900330,500.784515 
	C534.973633,521.134888 531.359619,540.918152 522.278870,559.513062 
	C514.652222,575.130188 502.970703,586.224609 486.945801,592.383789 
	C473.268646,597.640686 466.298401,591.979858 465.227631,576.286072 
	C464.637726,567.640686 466.245331,558.845520 466.858643,550.117676 
	C466.916962,549.287781 466.973572,548.456482 466.990936,547.625061 
	C467.331055,531.350342 467.827850,515.076965 467.959839,498.800507 
	C468.127838,478.083282 467.999481,457.363617 467.998901,436.645020 
	C467.998871,435.325470 467.998932,434.005920 467.998932,432.744476 
	C466.232452,431.950623 464.178802,431.678436 463.393646,430.535095 
	C461.904694,428.367035 460.118164,425.575745 460.395935,423.277985 
	C460.627441,421.362976 463.347626,418.882263 465.461670,418.208405 
	C475.726715,414.936279 485.294525,418.433624 494.628571,422.324799 
	C510.784821,429.060028 522.481873,440.339630 528.948364,457.203003 
M517.006470,533.438293 
	C521.275330,515.536255 522.975891,497.591797 520.165161,479.166473 
	C517.073486,458.899994 508.515839,443.133728 488.751190,434.861267 
	C482.466858,432.230988 482.009491,432.249390 482.005219,438.998810 
	C481.993622,457.369263 482.381836,475.749268 481.915405,494.107788 
	C481.284851,518.926941 479.954987,543.727783 479.059235,568.541382 
	C478.929749,572.128479 479.546814,575.742493 479.859802,579.893494 
	C488.685455,575.767700 496.565796,572.442749 501.984528,565.186829 
	C508.978424,555.821777 513.639832,545.398254 517.006470,533.438293 
z"/>
<path fill="#003DA5" opacity="1.000000" stroke="none" 
	d="
M848.001709,448.021637 
	C853.384949,438.539795 858.660522,429.410309 863.938171,420.282043 
	C865.009949,418.428436 865.706360,415.518585 867.249878,414.960693 
	C870.022339,413.958649 873.820618,413.289520 876.252869,414.448486 
	C879.756348,416.117920 879.938660,420.158508 878.089783,423.566315 
	C873.613953,431.815582 869.024597,440.006989 864.307007,448.120514 
	C854.378479,465.195923 844.403259,482.245117 834.290771,499.211884 
	C832.201172,502.717865 832.776672,505.388214 834.968140,508.555450 
	C850.317627,530.739258 865.549866,553.004272 880.762146,575.282532 
	C882.240784,577.448059 884.351746,579.888184 884.333130,582.185974 
	C884.311096,584.892639 882.890198,588.258911 880.906494,590.028076 
	C879.709900,591.095215 875.882751,590.335693 873.982178,589.176392 
	C872.061646,588.004944 871.059814,585.327332 869.655823,583.309326 
	C855.937439,563.591675 842.222839,543.871399 828.477234,524.172729 
	C828.155884,523.712341 827.484253,523.496460 826.467590,522.836548 
	C826.271851,524.405701 826.041077,525.472107 826.019897,526.542664 
	C825.664551,544.479370 825.319153,562.416260 825.009888,580.353882 
	C824.909241,586.188049 822.499756,589.881836 818.587830,589.981995 
	C813.950073,590.100769 811.017029,586.421387 811.005493,580.376099 
	C810.985657,570.049377 810.863342,559.720398 811.029419,549.396362 
	C811.630615,512.022034 812.378601,474.650055 812.943359,437.275299 
	C813.015503,432.503052 812.184998,427.723785 812.044373,422.939789 
	C811.917786,418.633606 815.387451,414.959137 819.114685,415.042023 
	C822.885498,415.125885 825.889282,418.666138 825.986145,423.327698 
	C826.348450,440.764038 826.662964,458.201385 827.007507,475.638123 
	C827.039246,477.243622 827.157715,478.847443 828.324097,480.897522 
	C834.847656,470.056488 841.371216,459.215424 848.001709,448.021637 
z"/>
<path fill="#003DA4" opacity="1.000000" stroke="none" 
	d="
M748.119080,512.953857 
	C753.068481,524.397339 758.027283,535.836853 762.959106,547.287903 
	C763.918884,549.516357 764.773376,551.790039 766.153442,555.232910 
	C766.596741,553.107910 766.960144,552.156067 766.967834,551.201416 
	C767.019836,544.705994 766.819885,538.204163 767.032227,531.715271 
	C767.612122,513.993774 768.418884,496.279755 769.013062,478.558685 
	C769.441223,465.787842 769.902893,453.010101 769.882324,440.236176 
	C769.873657,434.845184 768.394348,429.471924 768.077271,424.061646 
	C767.773193,418.873566 770.000183,416.283295 774.080383,416.024109 
	C778.124146,415.767212 781.726135,418.793579 781.935059,423.295563 
	C782.733398,440.502594 784.746948,457.808380 783.674500,474.912231 
	C781.877136,503.577850 781.011902,532.212463 780.849548,560.914062 
	C780.800598,569.571777 779.444214,578.321899 777.649536,586.810486 
	C777.094971,589.433655 772.814880,593.377991 770.766785,593.081421 
	C767.707397,592.638611 763.851013,589.530396 762.555664,586.580383 
	C758.411499,577.142578 755.370300,567.225647 751.749268,557.551331 
	C748.639526,549.243103 745.318298,541.013916 742.441650,532.428650 
	C745.066467,531.110291 747.799377,530.550537 749.378845,528.892151 
	C749.977661,528.263428 748.079407,525.013123 747.018799,523.126770 
	C746.223145,521.711670 744.843384,520.638123 743.909973,519.284058 
	C742.694092,517.520142 741.662476,515.629333 740.043823,512.953857 
	C743.633057,512.953857 745.876038,512.953857 748.119080,512.953857 
z"/>
<path fill="#003DA5" opacity="1.000000" stroke="none" 
	d="
M962.978638,421.000000 
	C975.030762,420.342438 986.586975,419.684601 998.143311,419.028839 
	C998.475708,419.010010 998.809631,419.020752 999.142334,419.005768 
	C1006.945007,418.654022 1009.888123,420.494598 1009.989746,425.791534 
	C1010.080688,430.535736 1006.841797,432.721466 999.649475,433.027496 
	C994.866516,433.230988 990.096375,433.870697 985.315186,433.938049 
	C982.050598,433.984070 980.923340,435.252625 980.963928,438.427948 
	C981.081177,447.587891 981.000916,456.750336 981.000183,465.911804 
	C980.999207,478.904419 980.890503,491.898193 981.023499,504.889435 
	C981.275391,529.491577 981.695129,554.091919 981.951599,578.693970 
	C981.975159,580.956360 981.573242,583.298645 980.931946,585.475037 
	C979.901184,588.973206 977.283752,590.721558 973.707214,589.883667 
	C970.511353,589.134949 968.018616,587.257751 968.012817,583.441650 
	C968.011841,582.775391 968.005371,582.109131 968.000671,581.442871 
	C967.666992,534.520935 967.333008,487.598969 967.001160,440.677032 
	C966.989563,439.038239 966.999634,437.399323 966.999634,434.998016 
	C958.651611,434.998016 950.724426,434.935974 942.799011,435.026581 
	C939.321533,435.066315 936.796448,433.997467 935.243347,430.642822 
	C932.990356,425.776398 935.551147,421.163269 940.995728,421.043884 
	C948.154968,420.886902 955.320129,421.001923 962.978638,421.000000 
z"/>
<path fill="#003DA5" opacity="1.000000" stroke="none" 
	d="
M729.893921,506.048401 
	C725.779541,498.194977 721.665161,490.341553 717.124329,481.674072 
	C716.680786,484.939880 716.142029,487.430878 716.033936,489.940369 
	C715.292603,507.159180 714.706909,524.384827 713.938904,541.602356 
	C713.400818,553.665588 712.683594,565.721252 711.983215,577.776672 
	C711.743958,581.894592 711.375671,586.007812 710.950195,590.111206 
	C710.598022,593.507141 708.574646,595.428040 705.234375,595.967163 
	C701.777283,596.525024 699.049133,595.047913 698.206909,591.877319 
	C697.291321,588.430725 696.949158,584.698547 697.112122,581.125244 
	C697.510620,572.388184 698.480713,563.678528 698.965820,554.943665 
	C699.471313,545.842529 699.608337,536.721558 700.029907,527.614990 
	C700.978943,507.111206 702.572388,486.617004 702.790894,466.107086 
	C702.927429,453.287689 701.093689,440.442169 700.026489,427.618164 
	C699.681458,423.472534 702.135620,419.916351 706.676941,419.223663 
	C710.993347,418.565277 712.953857,421.515533 713.973450,425.068054 
	C717.457275,437.207428 719.843811,449.767456 724.467285,461.447296 
	C730.270447,476.107513 737.867493,490.057678 744.329956,504.652985 
	C739.277710,505.343933 734.585815,505.696167 729.893921,506.048401 
z"/>
<path fill="#003DA4" opacity="1.000000" stroke="none" 
	d="
M656.998657,536.998657 
	C656.998596,526.500549 656.869263,516.500000 657.031616,506.504150 
	C657.231140,494.221832 657.650024,481.942719 658.019958,469.663635 
	C658.309631,460.048584 658.849487,450.437164 658.929077,440.821228 
	C658.975525,435.210052 658.127625,429.595367 658.068054,423.978180 
	C658.017578,419.214600 660.619690,416.888977 665.176147,417.018311 
	C669.557190,417.142639 671.880859,419.435638 671.986755,423.831635 
	C672.338745,438.443787 673.087891,453.062012 672.902527,467.667999 
	C672.565369,494.232056 671.251892,520.788086 671.194702,547.349304 
	C671.169983,558.836365 673.106934,570.345459 674.456909,581.808716 
	C674.970581,586.170471 673.159119,589.883240 669.074768,590.882935 
	C665.580200,591.738403 661.894775,589.454590 661.106750,585.316406 
	C659.847107,578.701477 658.639221,572.032837 658.118713,565.331787 
	C657.400024,556.080750 657.340454,546.778564 656.998657,536.998657 
z"/>
<path fill="#003DA5" opacity="1.000000" stroke="none" 
	d="
M926.000000,459.978577 
	C925.333374,489.356201 924.247681,518.237366 924.207581,547.119995 
	C924.191711,558.571716 926.373047,570.042236 927.807983,581.472290 
	C928.357056,585.846252 926.008301,590.071350 921.833435,590.916748 
	C918.611328,591.569214 914.756104,588.888611 914.060242,584.920715 
	C912.840820,577.967163 911.353638,570.967224 911.129700,563.949951 
	C910.456482,542.857117 909.957275,521.743713 910.114502,500.643768 
	C910.261475,480.919922 911.447327,461.205780 911.928284,441.481323 
	C912.064819,435.880707 911.160645,430.262299 911.053589,424.645966 
	C910.953552,419.400543 913.331238,417.007751 918.005432,417.010223 
	C922.674500,417.012634 924.851501,419.404938 924.999695,424.657562 
	C925.327209,436.266113 925.665894,447.874359 926.000000,459.978577 
z"/>
<path fill="#003BA0" opacity="1.000000" stroke="none" 
	d="
M729.954224,506.407959 
	C734.585815,505.696167 739.277710,505.343933 744.400330,504.993530 
	C745.884583,507.406311 746.938110,509.817291 748.055298,512.591064 
	C745.876038,512.953857 743.633057,512.953857 740.043823,512.953857 
	C741.662476,515.629333 742.694092,517.520142 743.909973,519.284058 
	C744.843384,520.638123 746.223145,521.711670 747.018799,523.126770 
	C748.079407,525.013123 749.977661,528.263428 749.378845,528.892151 
	C747.799377,530.550537 745.066467,531.110291 742.478027,532.056519 
	C738.113647,523.592896 734.064087,515.180237 729.954224,506.407959 
z"/>
<path fill="#000000" opacity="1.000000" stroke="none" 
	d="
M608.236328,486.218811 
	C601.323425,492.030334 594.039001,496.255402 585.414307,498.141846 
	C580.825378,499.145538 579.515137,504.481903 582.433472,508.987183 
	C589.230347,519.480225 596.458496,529.715210 602.811707,540.468445 
	C609.347595,551.530945 615.072266,563.073853 621.089661,574.439514 
	C621.668030,575.532043 621.805542,576.857910 622.339539,578.758118 
	C604.111511,580.263733 586.453308,581.722351 567.863220,583.257935 
	C567.863220,571.091064 567.857727,559.593994 567.869263,548.096985 
	C567.870972,546.432861 567.955811,544.768860 567.999695,543.104736 
	C568.669739,517.717957 569.316772,492.330597 570.020874,466.944794 
	C570.278320,457.664612 570.976013,448.384430 570.861389,439.111816 
	C570.810974,435.037140 572.810181,433.463654 575.918518,433.241547 
	C586.537659,432.482727 597.114746,432.356476 606.689575,438.324280 
	C619.884521,446.548401 623.258057,464.578400 614.044434,478.406982 
	C612.313843,481.004425 610.342224,483.441254 608.236328,486.218811 
M576.359680,481.739441 
	C582.147522,489.710571 592.622986,493.036743 599.689087,488.542206 
	C605.840027,484.629791 610.672607,478.169495 605.095093,466.317352 
	C600.707092,456.992676 595.962219,447.835907 591.335266,438.522858 
	C587.327881,446.123505 583.236084,453.591736 579.426392,461.201233 
	C576.320129,467.405792 573.216736,473.723511 576.359680,481.739441 
z"/>
<path fill="#000000" opacity="1.000000" stroke="none" 
	d="
M516.939453,533.846924 
	C513.639832,545.398254 508.978424,555.821777 501.984528,565.186829 
	C496.565796,572.442749 488.685455,575.767700 479.859802,579.893494 
	C479.546814,575.742493 478.929749,572.128479 479.059235,568.541382 
	C479.954987,543.727783 481.284851,518.926941 481.915405,494.107788 
	C482.381836,475.749268 481.993622,457.369263 482.005219,438.998810 
	C482.009491,432.249390 482.466858,432.230988 488.751190,434.861267 
	C508.515839,443.133728 517.073486,458.899994 520.165161,479.166473 
	C522.975891,497.591797 521.275330,515.536255 516.939453,533.846924 
z"/>
<path fill="#003DA5" opacity="1.000000" stroke="none" 
	d="
M576.221741,481.363403 
	C573.216736,473.723511 576.320129,467.405792 579.426392,461.201233 
	C583.236084,453.591736 587.327881,446.123505 591.335266,438.522858 
	C595.962219,447.835907 600.707092,456.992676 605.095093,466.317352 
	C610.672607,478.169495 605.840027,484.629791 599.689087,488.542206 
	C592.622986,493.036743 582.147522,489.710571 576.221741,481.363403 
M598.960449,479.114532 
	C596.294739,478.766937 594.614075,479.748657 595.208557,482.597778 
	C595.364929,483.347382 597.041992,483.779724 598.020752,484.357758 
	C598.559082,482.702637 599.097473,481.047485 598.960449,479.114532 
z"/>
<path fill="#000000" opacity="1.000000" stroke="none" 
	d="
M599.298157,479.253448 
	C599.097473,481.047485 598.559082,482.702637 598.020752,484.357758 
	C597.041992,483.779724 595.364929,483.347382 595.208557,482.597778 
	C594.614075,479.748657 596.294739,478.766937 599.298157,479.253448 
z"/>
</svg>